<?xml version="1.0" encoding="utf-8"?>
<!-- Generator: Adobe Illustrator 25.0.0, SVG Export Plug-In . SVG Version: 6.00 Build 0)  -->
<svg version="1.1" id="Layer_1" xmlns="http://www.w3.org/2000/svg" xmlns:xlink="http://www.w3.org/1999/xlink" x="0px" y="0px"
	 viewBox="0 0 1200 800" style="enable-background:new 0 0 1200 800;" xml:space="preserve">
<style type="text/css">
	.st0{fill:none;stroke:#A6A6A6;stroke-width:5;stroke-miterlimit:10;}
	.st1{fill:#39B54A;}
	.st2{fill:#F7931E;}
	.st3{fill:none;stroke:#0000FF;stroke-miterlimit:10;}
	.st4{fill:#C7B299;}
	.st5{fill:none;stroke:#0000FF;stroke-width:5;stroke-miterlimit:10;}
	.st6{fill:none;stroke:#C7B299;stroke-width:2;stroke-miterlimit:10;}
	.st7{fill:none;stroke:#FF0000;stroke-miterlimit:10;}
</style>
<polyline class="st0" points="828.8,355.5 702.1,401.8 828.8,455.7 "/>
<polygon class="st0" points="187.8,404.7 325.3,356.7 466.4,404.7 325.3,454.3 "/>
<g>
	<line class="st0" x1="98.4" y1="363" x2="98.4" y2="431"/>
	<g>
		<circle class="st1" cx="98.4" cy="363" r="5"/>
		<circle class="st1" cx="98.4" cy="431" r="5"/>
	</g>
</g>
<g>
	<line class="st0" x1="325.3" y1="278.6" x2="325.3" y2="346.6"/>
	<g>
		<circle class="st2" cx="325.3" cy="278.6" r="5"/>
		<circle class="st1" cx="325.3" cy="346.6" r="5"/>
	</g>
</g>
<g>
	<line class="st0" x1="325.3" y1="532.3" x2="325.3" y2="464.3"/>
	<g>
		<circle class="st2" cx="325.3" cy="532.3" r="5"/>
		<circle class="st2" cx="325.3" cy="464.3" r="5"/>
	</g>
</g>
<g>
	<line class="st0" x1="828.8" y1="278.6" x2="828.8" y2="346.6"/>
	<g>
		<circle class="st2" cx="828.8" cy="278.6" r="5"/>
		<circle class="st2" cx="828.8" cy="346.6" r="5"/>
	</g>
</g>
<g>
	<line class="st0" x1="591" y1="366.4" x2="591" y2="434.4"/>
	<g>
		<circle class="st1" cx="591" cy="366.4" r="5"/>
		<circle class="st2" cx="591" cy="434.4" r="5"/>
	</g>
</g>
<path class="st3" d="M1025.3,616.7"/>
<g>
	<rect x="795.9" y="375.9" class="st4" width="100" height="60"/>
</g>
<g>
	<line class="st0" x1="828.8" y1="464.6" x2="828.8" y2="532.6"/>
	<g>
		<circle class="st1" cx="828.8" cy="464.6" r="5"/>
		<circle class="st1" cx="828.8" cy="532.6" r="5"/>
	</g>
</g>
<path class="st5" d="M837.5,316h88.9c70.3,0,127.3,41.1,127.3,91.8s-57,91.8-127.3,91.8h-87.1"/>
<g>
	<rect x="900.8" y="354.4" class="st4" width="60" height="100"/>
</g>
<line class="st6" x1="921.4" y1="550.5" x2="1021.4" y2="550.5"/>
<line class="st6" x1="1109.3" y1="357.8" x2="1109.3" y2="457.8"/>
<line class="st6" x1="1033.3" y1="541.2" x2="1104" y2="470.5"/>
<line class="st6" x1="918.4" y1="267.3" x2="1018.4" y2="267.3"/>
<line class="st6" x1="1030.4" y1="276.5" x2="1101.1" y2="347.2"/>
<line class="st6" x1="590.5" y1="356" x2="590.5" y2="256"/>
<line class="st6" x1="590.2" y1="444.2" x2="590.2" y2="544.2"/>
<line class="st6" x1="276.1" y1="403.8" x2="376.1" y2="403.8"/>
<polyline class="st0" points="94.3,347.7 327.8,262.1 590.5,356 828.3,262.1 "/>
<polyline class="st0" points="94,453.5 322.7,545.9 590.2,445.2 830,545.9 "/>
<polygon class="st7" points="111.7,396.1 95.2,391.2 95.2,401 "/>
</svg>
