<?xml version="1.0" encoding="utf-8"?>
<!-- Generator: Adobe Illustrator 25.0.0, SVG Export Plug-In . SVG Version: 6.00 Build 0)  -->
<svg version="1.1" id="Layer_1" xmlns="http://www.w3.org/2000/svg" xmlns:xlink="http://www.w3.org/1999/xlink" x="0px" y="0px"
	 viewBox="0 0 1000 800" style="enable-background:new 0 0 1000 800;" xml:space="preserve">
<style type="text/css">
	.st0{fill:none;stroke:#A6A6A6;stroke-width:5;stroke-miterlimit:10;}
	.st1{fill:none;stroke:#FF0000;stroke-miterlimit:10;}
	.st2{fill:#39B54A;}
	.st3{fill:#F7931E;}
	.st4{fill:none;stroke:#0000FF;stroke-width:5;stroke-miterlimit:10;}
	.st5{fill:#C7B299;}
	.st6{fill:none;stroke:#C7B299;stroke-width:2;stroke-miterlimit:10;}
</style>
<path class="st0" d="M870.1,401.7c-8.91,55.03-23.59,109.17-43.4,161.28c-15.19,39.96-39.46,82.84-82.39,97.35
	c-45.04,15.21-95.73,15.05-142.69,13.83c-58-1.49-115.96-7.49-173.32-16.06c-90.4-13.5-210.8-33.4-283.1-4.3"/>
<g>
	<line class="st0" x1="116" y1="202" x2="116" y2="270"/>
</g>
<polygon class="st1" points="126.7,235.1 110.2,230.2 110.2,240 "/>
<g>
	<line class="st0" x1="350" y1="260.2" x2="350" y2="328.2"/>
	<g>
		<circle class="st2" cx="350" cy="260.2" r="5"/>
		<circle class="st2" cx="350" cy="328.2" r="5"/>
	</g>
</g>
<g>
	<line class="st0" x1="443.4" y1="578.4" x2="430.5" y2="645.2"/>
	<g>
		<circle class="st3" cx="443.4" cy="578.4" r="5"/>
		<circle class="st2" cx="430.5" cy="645.2" r="5"/>
	</g>
</g>
<g>
	<line class="st0" x1="142.3" y1="643.1" x2="116" y2="580.4"/>
	<g>
		<circle class="st3" cx="142.3" cy="643.1" r="5"/>
		<circle class="st2" cx="116" cy="580.4" r="5"/>
	</g>
</g>
<g>
	<line class="st0" x1="771" y1="628.3" x2="720.2" y2="583.1"/>
	<g>
		<circle class="st3" cx="771" cy="628.3" r="5"/>
		<circle class="st3" cx="720.2" cy="583.1" r="5"/>
	</g>
</g>
<g>
	<line class="st0" x1="609.5" y1="210.8" x2="572.1" y2="153.9"/>
	<g>
		<circle class="st3" cx="609.5" cy="210.8" r="5"/>
		<circle class="st2" cx="572.1" cy="153.9" r="5"/>
	</g>
</g>
<path class="st4" d="M599.21,177.18c34.34-20.71,71.28-40.58,110.09-50.28c55.8-14,110.7,2.7,146.1,48.7
	c29.4,38.1,23.7,91.2,9.6,134.2c-7.7,23.56-19.63,46.35-31.14,69.08"/>
<g>
	<line class="st0" x1="796.4" y1="375.5" x2="860.7" y2="397.7"/>
	<g>
		<circle class="st3" cx="796.4" cy="375.5" r="5"/>
		<circle class="st2" cx="860.7" cy="397.7" r="5"/>
	</g>
</g>
<g>
	
		<rect x="655.62" y="195.91" transform="matrix(0.9607 -0.2777 0.2777 0.9607 -34.9817 204.8288)" class="st5" width="100" height="60"/>
</g>
<g>
	
		<rect x="717.73" y="252.21" transform="matrix(0.965 -0.2624 0.2624 0.965 -53.0988 206.7862)" class="st5" width="60" height="100"/>
</g>
<line class="st6" x1="593.8" y1="123.6" x2="681.3" y2="75.2"/>
<line class="st6" x1="694.8" y1="69.6" x2="794.8" y2="66.3"/>
<line class="st6" x1="806.8" y1="65.6" x2="900" y2="101.9"/>
<line class="st6" x1="906.8" y1="105.6" x2="932.4" y2="202.3"/>
<line class="st6" x1="934.8" y1="210.6" x2="945.2" y2="310.1"/>
<line class="st6" x1="729.4" y1="363.5" x2="687.7" y2="454.4"/>
<g>
	<rect x="917.8" y="321.2" class="st5" width="60" height="100"/>
</g>
<path class="st0" d="M116,177.2c90.3,30.4,107.9,51.5,220.6,62.8c111.4,11.2,207.5-66.4,230.5-101.8"/>
<path class="st0" d="M116,294.2c91.5,38.8,140.3,51.6,234,49.2s190.3-40.8,264.4-117.5"/>
<path class="st0" d="M784,371.2c-25.9,58.2-28.2,160.7-72.6,197.9c-44.5,37.2-145.6,17-266.2-2.3c-115.6-18.5-179.2-27-334.1,3.5"/>
</svg>
