<?xml version="1.0" encoding="utf-8"?>
<!-- Generator: Adobe Illustrator 25.0.0, SVG Export Plug-In . SVG Version: 6.00 Build 0)  -->
<svg version="1.1" id="Layer_1" xmlns="http://www.w3.org/2000/svg" xmlns:xlink="http://www.w3.org/1999/xlink" x="0px" y="0px"
	 viewBox="0 0 1200 800" style="enable-background:new 0 0 1200 800;" xml:space="preserve">
<style type="text/css">
	.st0{fill:none;stroke:#A6A6A6;stroke-width:3;stroke-miterlimit:10;}
	.st1{fill:#39B54A;}
	.st2{fill:#F7941D;}
	.st3{fill:none;stroke:#C2B59B;stroke-width:2;stroke-miterlimit:10;}
	.st4{fill:#C2B59B;}
	.st5{fill:none;stroke:#0000FF;stroke-width:3;stroke-miterlimit:10;}
	.st6{fill:none;stroke:#FF0000;stroke-width:3;stroke-miterlimit:10;}
</style>
<g>
	<line class="st0" x1="877.75" y1="424.03" x2="877.75" y2="492.03"/>
	<circle class="st1" cx="877.75" cy="424.03" r="5"/>
	<circle class="st1" cx="877.75" cy="492.03" r="5"/>
</g>
<g>
	<line class="st0" x1="66.78" y1="262.85" x2="66.78" y2="330.85"/>
	<circle class="st1" cx="66.78" cy="262.85" r="5"/>
	<circle class="st2" cx="66.78" cy="330.85" r="5"/>
</g>
<line class="st3" x1="646.47" y1="115.24" x2="569.07" y2="178.56"/>
<line class="st3" x1="562.38" y1="179.07" x2="481.69" y2="119.99"/>
<line class="st3" x1="474.38" y1="116.07" x2="374.99" y2="104.99"/>
<rect x="569.55" y="433.17" transform="matrix(0.8246 -0.5657 0.5657 0.8246 -168.1761 423.8967)" class="st4" width="60" height="100"/>
<g>
	<line class="st0" x1="323.18" y1="164.5" x2="328.82" y2="232.27"/>
	<circle class="st1" cx="323.18" cy="164.5" r="5"/>
	<circle class="st1" cx="328.82" cy="232.27" r="5"/>
</g>
<g>
	<line class="st0" x1="632.88" y1="317.94" x2="586.59" y2="367.76"/>
	<circle class="st2" cx="632.88" cy="317.94" r="5"/>
	<circle class="st2" cx="586.59" cy="367.76" r="5"/>
</g>
<g>
	<line class="st0" x1="825.98" y1="171.69" x2="793.59" y2="111.9"/>
	<circle class="st1" cx="825.98" cy="171.69" r="5"/>
	<circle class="st1" cx="793.59" cy="111.9" r="5"/>
</g>
<g>
	<line class="st0" x1="484.77" y1="388.76" x2="441.27" y2="336.49"/>
	<circle class="st2" cx="484.77" cy="388.76" r="5"/>
	<circle class="st1" cx="441.27" cy="336.49" r="5"/>
</g>
<path class="st5" d="M894.49,463.03c57.38,0,120.46-12.89,166.16-49.99c73.04-59.29,100.22-219.97,34.8-293.91
	c-67.7-76.52-204.17-20.81-276.41,16.15"/>
<path class="st5" d="M453.64,366.56c-90.8,72.63-132.81,147.34-119.82,231.55c12.87,83.41,90.76,121.33,168.65,120.42
	c90.46-1.06,184.15-50.67,221.84-135.67c42.47-95.78-37.61-179.78-107.34-236.11"/>
<polygon class="st6" points="69.66,287.47 69.66,304.93 102.73,295.92 "/>
<rect x="885.08" y="335.3" transform="matrix(0.9338 -0.3577 0.3577 0.9338 -68.7989 358.6615)" class="st4" width="100" height="60"/>
<rect x="982.28" y="267.27" transform="matrix(0.4121 -0.9111 0.9111 0.4121 336.0086 1115.3055)" class="st4" width="100" height="60"/>
<rect x="973.47" y="131.02" transform="matrix(0.561 -0.8278 0.8278 0.561 290.6618 910.1486)" class="st4" width="60" height="100"/>
<rect x="844.4" y="166.91" transform="matrix(0.9188 -0.3946 0.3946 0.9188 -5.1192 368.9277)" class="st4" width="100" height="60"/>
<rect x="843.39" y="246.31" transform="matrix(0.9363 -0.3511 0.3511 0.9363 -48.4303 325.5209)" class="st4" width="60" height="100"/>
<path class="st0" d="M818.93,188.9c-53.97,22.51-120.79,64.96-181.33,117.31c2.51,2.52,5.02,5.04,7.54,7.53
	c18.92,18.76,37.84,38.03,58.86,54.47c44.17,34.54,117.7,46.54,171.9,38.51"/>
<path class="st0" d="M68.27,349.76c59.21-21.53,112.92-54.21,169.96-80.43c37.12-17.06,79.33-23.75,119.98-21.38
	c43.59,2.55,78.61,17.35,116.32,37.99c0,0-40.5,30.04-50.93,37.89c-17.94,13.49-35.26,27.86-51.3,43.57
	c-13.91,13.61-26.85,28.23-38.29,43.98c-50.33,69.29-71.2,158.38-39.98,237.78c15.66,39.81,65.87,83.4,103.9,100.86
	c84.01,38.57,206.13,9.09,286.26-47.58c60.26-42.63,114.94-110.26,88.96-210.6c49.24,5.51,50.68,9.49,102.76,15.43
	c149.31,17,250.12-78.61,276.72-155.53c23.5-67.97,21.75-137.67,9.04-195.76c-12.33-56.38-73.27-110.79-141.3-118.22
	c-50.22-5.48-142.51,18.79-232.93,61.32c-88.82,41.78-166.58,90.4-220.2,137.32c-16.85-15.41-34.41-29.9-53.25-42.46
	c-63.31-42.21-120.98-49.6-196.04-46.92c-93.84,3.35-174.27,55.29-254.7,93.83"/>
<line class="st3" x1="743.74" y1="62.74" x2="655.54" y2="109.88"/>
<rect x="441.81" y="459.18" transform="matrix(0.6932 -0.7207 0.7207 0.6932 -201.6856 504.522)" class="st4" width="100" height="60"/>
<rect x="562.06" y="558.8" transform="matrix(0.7185 -0.6955 0.6955 0.7185 -237.2335 591.402)" class="st4" width="100" height="60"/>
<rect x="462.11" y="581.65" transform="matrix(0.389 -0.9212 0.9212 0.389 -250.5905 845.4644)" class="st4" width="100" height="60"/>
<rect x="381.81" y="559.18" transform="matrix(9.429087e-03 -1 1 9.429087e-03 -161.4137 1015.4107)" class="st4" width="100" height="60"/>
</svg>
